<?xml version="1.0" standalone="no"?>
<!DOCTYPE svg PUBLIC "-//W3C//DTD SVG 20010904//EN"
 "http://www.w3.org/TR/2001/REC-SVG-20010904/DTD/svg10.dtd">
<svg version="1.0" xmlns="http://www.w3.org/2000/svg"
 width="192.000000pt" height="192.000000pt" viewBox="0 0 192.000000 192.000000"
 preserveAspectRatio="xMidYMid meet">

<g transform="translate(0.000000,192.000000) scale(0.100000,-0.100000)"
fill="#1087ab" stroke="none">
<path d="M284 1700 c-9 -9 -26 -10 -138 -9 -32 0 -61 -3 -64 -6 -3 -3 4 -5 16
-5 12 0 22 -4 22 -10 0 -5 20 -18 43 -28 71 -32 96 -81 103 -207 2 -33 5 -218
6 -411 l3 -351 -40 -44 c-51 -56 -100 -89 -131 -89 -13 0 -24 -4 -24 -9 0 -14
68 -23 145 -21 91 4 108 4 185 1 36 -1 92 2 125 8 33 6 89 13 123 15 47 4 72
11 95 29 18 13 42 27 54 31 13 4 23 12 23 17 0 5 20 29 44 53 68 70 127 204
142 326 1 14 7 47 12 74 6 27 9 54 7 60 -2 6 -6 51 -9 100 -3 49 -10 94 -15
100 -4 6 -11 28 -14 49 -3 22 -19 53 -36 73 -17 19 -31 39 -31 44 0 6 -7 10
-15 10 -8 0 -15 7 -15 16 0 20 -90 113 -109 114 -8 0 -22 6 -30 14 -9 8 -39
20 -66 27 -28 6 -57 14 -65 16 -29 9 -161 11 -223 3 -47 -6 -66 -4 -78 6 -18
16 -31 18 -45 4z m349 -198 c67 -35 117 -81 117 -108 0 -8 4 -14 9 -14 5 0 22
-26 37 -57 22 -45 28 -69 26 -112 -2 -31 -3 -63 -3 -71 -1 -8 0 -44 1 -78 1
-36 -3 -69 -9 -75 -6 -6 -11 -22 -11 -36 0 -31 -30 -111 -41 -111 -5 0 -9 -5
-9 -10 0 -21 -65 -96 -105 -122 -58 -38 -75 -43 -86 -27 -7 11 -10 9 -15 -8
-7 -24 -19 -30 -29 -13 -3 6 -17 7 -30 4 -20 -5 -25 -2 -29 18 -11 56 -14 98
-6 98 7 0 13 203 11 325 -1 11 -3 104 -5 207 -2 103 -7 192 -11 198 -33 53 81
48 188 -8z"/>
<path d="M1058 1689 c-23 -5 -23 -5 4 -12 14 -4 44 -23 67 -43 l40 -36 0 -92
c0 -50 2 -120 5 -156 2 -36 1 -103 -3 -150 -4 -47 -5 -89 -2 -95 9 -16 -4
-619 -14 -635 -3 -4 3 -22 11 -40 9 -18 13 -35 8 -39 -13 -9 -17 -30 -18 -94
-1 -64 4 -79 28 -83 12 -2 16 6 16 30 0 42 19 99 37 109 7 4 13 15 13 23 0 8
9 22 20 31 11 10 23 32 26 50 3 18 11 33 18 33 24 0 65 73 47 84 -8 5 -4 246
4 254 2 3 -3 11 -13 18 -14 10 -15 15 -4 25 7 8 12 38 12 71 l0 58 43 2 c23 1
59 1 79 0 20 -1 40 3 43 8 5 8 11 7 21 0 9 -8 23 -9 46 -2 18 6 45 13 59 16
36 8 139 107 139 134 0 12 4 22 8 22 19 0 32 56 38 167 6 103 5 120 -10 132
-9 7 -16 18 -16 23 0 24 -42 97 -59 103 -10 3 -31 17 -47 31 -42 40 -89 63
-105 53 -8 -5 -23 -6 -34 -2 -25 8 -475 10 -507 2z m495 -154 c20 -3 37 -10
37 -16 0 -6 14 -27 30 -48 20 -25 30 -47 29 -67 -1 -16 1 -45 5 -65 5 -23 4
-39 -3 -43 -6 -4 -11 -20 -11 -37 0 -16 -4 -29 -10 -29 -5 0 -10 -6 -10 -12 0
-44 -208 -94 -243 -59 -13 13 -22 198 -17 337 l2 42 39 -2 c22 -1 42 2 45 6 3
5 20 6 37 4 18 -3 49 -8 70 -11z"/>
</g>
</svg>
